<?xml version="1.0" standalone="no"?>
<!DOCTYPE svg PUBLIC "-//W3C//DTD SVG 20010904//EN"
 "http://www.w3.org/TR/2001/REC-SVG-20010904/DTD/svg10.dtd">
<svg version="1.0" xmlns="http://www.w3.org/2000/svg"
 width="100.000000pt" height="100.000000pt" viewBox="0 0 100.000000 100.000000"
 preserveAspectRatio="xMidYMid meet">
<metadata>
Created by potrace 1.14, written by Peter Selinger 2001-2017
</metadata>
<g transform="translate(0.000000,100.000000) scale(0.100000,-0.100000)"
fill="#000000" stroke="none">
<path d="M80 500 l0 -420 420 0 420 0 0 420 0 420 -420 0 -420 0 0 -420z m120
350 c0 -28 -2 -30 -40 -30 -38 0 -40 2 -40 30 0 28 2 30 40 30 38 0 40 -2 40
-30z m560 -150 l0 -180 -260 0 -260 0 0 180 0 180 260 0 260 0 0 -180z m120
150 c0 -28 -2 -30 -40 -30 -38 0 -40 2 -40 30 0 28 2 30 40 30 38 0 40 -2 40
-30z m-680 -100 c0 -28 -2 -30 -40 -30 -38 0 -40 2 -40 30 0 28 2 30 40 30 38
0 40 -2 40 -30z m680 0 c0 -28 -2 -30 -40 -30 -38 0 -40 2 -40 30 0 28 2 30
40 30 38 0 40 -2 40 -30z m-680 -100 c0 -28 -2 -30 -40 -30 -38 0 -40 2 -40
30 0 28 2 30 40 30 38 0 40 -2 40 -30z m680 0 c0 -28 -2 -30 -40 -30 -38 0
-40 2 -40 30 0 28 2 30 40 30 38 0 40 -2 40 -30z m-680 -100 c0 -28 -2 -30
-40 -30 -38 0 -40 2 -40 30 0 28 2 30 40 30 38 0 40 -2 40 -30z m680 0 c0 -28
-2 -30 -40 -30 -38 0 -40 2 -40 30 0 28 2 30 40 30 38 0 40 -2 40 -30z m-680
-100 c0 -28 -2 -30 -40 -30 -38 0 -40 2 -40 30 0 28 2 30 40 30 38 0 40 -2 40
-30z m560 -150 l0 -180 -260 0 -260 0 0 180 0 180 260 0 260 0 0 -180z m120
150 c0 -28 -2 -30 -40 -30 -38 0 -40 2 -40 30 0 28 2 30 40 30 38 0 40 -2 40
-30z m-680 -100 c0 -28 -2 -30 -40 -30 -38 0 -40 2 -40 30 0 28 2 30 40 30 38
0 40 -2 40 -30z m680 0 c0 -28 -2 -30 -40 -30 -38 0 -40 2 -40 30 0 28 2 30
40 30 38 0 40 -2 40 -30z m-680 -100 c0 -28 -2 -30 -40 -30 -38 0 -40 2 -40
30 0 28 2 30 40 30 38 0 40 -2 40 -30z m680 0 c0 -28 -2 -30 -40 -30 -38 0
-40 2 -40 30 0 28 2 30 40 30 38 0 40 -2 40 -30z m-680 -100 c0 -28 -2 -30
-40 -30 -38 0 -40 2 -40 30 0 28 2 30 40 30 38 0 40 -2 40 -30z m680 0 c0 -28
-2 -30 -40 -30 -38 0 -40 2 -40 30 0 28 2 30 40 30 38 0 40 -2 40 -30z"/>
</g>
</svg>
